<?xml version="1.0" encoding="UTF-8" standalone="no"?>
<svg
   xmlns:dc="http://purl.org/dc/elements/1.1/"
   xmlns:cc="http://creativecommons.org/ns#"
   xmlns:rdf="http://www.w3.org/1999/02/22-rdf-syntax-ns#"
   xmlns:svg="http://www.w3.org/2000/svg"
   xmlns="http://www.w3.org/2000/svg"
   xmlns:sodipodi="http://sodipodi.sourceforge.net/DTD/sodipodi-0.dtd"
   xmlns:inkscape="http://www.inkscape.org/namespaces/inkscape"
   height="813.71875"
   viewBox="-76 0 646.65 650.975"
   width="808.3125"
   id="svg2"
   version="1.1"
   inkscape:version="0.48.5 r10040"
   sodipodi:docname="logo.svg">
  <metadata
     id="metadata20">
    <rdf:RDF>
      <cc:Work
         rdf:about="">
        <dc:format>image/svg+xml</dc:format>
        <dc:type
           rdf:resource="http://purl.org/dc/dcmitype/StillImage" />
      </cc:Work>
    </rdf:RDF>
  </metadata>
  <defs
     id="defs18" />
  <sodipodi:namedview
     pagecolor="#ffffff"
     bordercolor="#666666"
     borderopacity="1"
     objecttolerance="10"
     gridtolerance="10"
     guidetolerance="10"
     inkscape:pageopacity="0"
     inkscape:pageshadow="2"
     inkscape:window-width="1536"
     inkscape:window-height="801"
     id="namedview16"
     showgrid="false"
     fit-margin-top="0"
     fit-margin-left="0"
     fit-margin-right="0"
     fit-margin-bottom="0"
     inkscape:zoom="0.36875"
     inkscape:cx="-586.74179"
     inkscape:cy="638.2009"
     inkscape:window-x="-8"
     inkscape:window-y="-8"
     inkscape:window-maximized="1"
     inkscape:current-layer="svg2" />
  <path
     sodipodi:type="arc"
     style="fill:#5a91b8;fill-opacity:1;fill-rule:nonzero;stroke:#ffffff;stroke-width:11.03199959;stroke-linecap:round;stroke-linejoin:miter;stroke-miterlimit:4;stroke-opacity:1;stroke-dasharray:none"
     id="path2997"
     sodipodi:cx="320"
     sodipodi:cy="363.38983"
     sodipodi:rx="398.64407"
     sodipodi:ry="401.35593"
     d="m 718.64407,363.38983 a 398.64407,401.35593 0 1 1 -797.288143,0 398.64407,401.35593 0 1 1 797.288143,0 z"
     transform="matrix(0.8,0,0,0.8,-8.675,34.775)" />
  <g
     id="g3767"
     transform="matrix(0.93162281,0.36342667,-0.36342667,0.93162281,145.06514,-72.560981)">
    <path
       style="fill:#ee9253"
       inkscape:connector-curvature="0"
       id="path4"
       d="m 112.325,255.8089 c 0,41.99219 -10.17578,62.56641 -20.945312,84.35156 C 79.555469,364.07452 67.325,388.80109 67.325,437.8089 c 0,74.4375 60.5625,135 135,135 15.46484,0 30.57031,-2.58594 45,-7.69141 V 120.8089 c -74.4375,0 -135,60.5625 -135,135 z m 0,0" />
    <path
       style="fill:#eb6a2e"
       inkscape:connector-curvature="0"
       id="path6"
       d="M 403.27031,340.16046 C 392.50078,318.37531 382.325,297.80109 382.325,255.8089 c 0,-74.4375 -60.5625,-135 -135,-135 v 444.30859 c 14.42969,5.10547 29.53516,7.69141 45,7.69141 74.4375,0 135,-60.5625 135,-135 0,-49.00781 -12.23047,-73.73438 -24.05469,-97.64844 z m 0,0" />
    <path
       style="fill:#6b3628"
       inkscape:connector-curvature="0"
       id="path8"
       d="m 247.325,90.859679 -10,59.949221 h 25 v -15 c 0,-24.8125 20.1875,-45.000002 45,-45.000002 v -30 c -24.50781,0 -46.30469,11.816406 -60,30.050781 z m 0,0" />
    <path
       style="fill:#7b503a"
       inkscape:connector-curvature="0"
       id="path10"
       d="m 232.325,135.8089 v 15 h 15 V 90.859679 c -9.41406,12.535161 -15,28.101561 -15,44.949221 z m 0,0" />
    <path
       style="fill:#ee9253"
       inkscape:connector-curvature="0"
       id="path12"
       d="m 309.62578,344.3714 c -3.75391,-22.77734 -7.30078,-44.28906 -7.30078,-88.5625 0,-65.01953 -17.21094,-135 -55,-135 l -30,226 30,226 c 39.90625,0 70,-58.03906 70,-135 0,-46.72656 -3.91406,-70.47656 -7.69922,-93.4375 z m 0,0" />
    <path
       style="fill:#efbe78"
       inkscape:connector-curvature="0"
       id="path14"
       d="m 192.325,255.8089 c 0,44.27344 -3.54687,65.78516 -7.30078,88.5625 -3.78516,22.96484 -7.69922,46.71094 -7.69922,93.4375 0,76.96094 30.09375,135 70,135 v -452 c -37.78906,0 -55,69.98047 -55,135 z m 0,0" />
  </g>
</svg>
